<svg width="30" height="34" viewBox="0 0 30 34" fill="none" xmlns="http://www.w3.org/2000/svg">
<path fill-rule="evenodd" clip-rule="evenodd" d="M11.1563 1.92254C9.1013 2.97764 7.42003 3.87047 7.42039 3.90678C7.4213 4.0005 12.3524 6.46192 12.5275 6.45592C12.6071 6.45329 13.1846 6.19125 13.8109 5.87368L14.9496 5.29639L16.1933 5.92647L17.4369 6.55666L19.4736 5.65466C22.5424 4.29549 22.8612 4.14654 22.8112 4.0965C22.7449 4.03011 21.6442 3.44729 18.6578 1.89768C17.2146 1.14874 15.8137 0.414425 15.5448 0.265837C15.2759 0.117249 15.0192 -0.00228069 14.9744 3.3032e-05C14.9295 0.00234676 13.2113 0.867484 11.1563 1.92254ZM2.14309 6.52278L0.00385942 7.61188V12.3917C0.00385942 15.0207 0.0319496 17.1715 0.0664058 17.1715C0.100743 17.1715 1.15325 16.7218 2.40525 16.1722L4.68163 15.1729V10.1347L5.79402 10.732C6.65121 11.1919 7.50892 11.6508 8.36714 12.1088L9.82783 12.8883L10.4778 12.5986C10.8854 12.4167 11.2923 12.2329 11.6983 12.0474C12.012 11.9034 12.7821 11.5615 13.4096 11.2875C14.0371 11.0134 14.618 10.7378 14.7003 10.6749C14.8097 10.5915 13.4756 9.86482 9.76564 7.98709C6.96915 6.57168 4.59139 5.41811 4.48174 5.42364C4.37208 5.42917 3.3197 5.92372 2.14309 6.52278ZM23.1967 6.82862C21.7398 7.4769 20.5467 8.03321 20.5453 8.06494C20.5441 8.09662 21.3382 8.562 22.3101 9.09894C23.282 9.636 24.0772 10.1041 24.0772 10.1394C24.0772 10.1745 23.2171 10.5853 22.1661 11.0522C21.115 11.5191 18.4582 12.7017 16.2619 13.6802L8.903 16.9587C7.05187 17.7835 5.38329 18.5269 5.19505 18.611C1.41402 20.298 0.374761 20.7661 0.232042 20.8465C0.0885279 20.9274 0.0560212 21.3974 0.0304775 23.7563L0 26.5698L1.913 27.5305L3.82596 28.4912L6.47857 27.3113C7.93755 26.6624 9.13118 26.0974 9.13118 26.0558C9.13118 26.0143 8.86158 25.8412 8.53222 25.6709C8.20269 25.5006 7.52248 25.1237 7.02048 24.8331C6.51852 24.5425 6.01799 24.2758 5.90809 24.2405C5.79824 24.2052 5.70995 24.1435 5.71174 24.1033C5.71357 24.0632 6.88166 23.5163 8.30734 22.888C11.0764 21.6677 13.1956 20.7272 17.7451 18.6994C19.7795 17.7928 21.8141 16.8868 23.849 15.9813C25.6374 15.1857 27.7167 14.2565 28.4697 13.9164L29.8388 13.2981L29.8692 10.4526L29.8998 7.60717L27.9596 6.6256C26.8924 6.0858 25.9802 5.64545 25.9324 5.64705C25.8846 5.64854 24.6536 6.18019 23.1967 6.82862ZM29.319 17.0942C29.033 17.2318 28.4683 17.4896 28.064 17.6669C27.6596 17.8442 26.8924 18.1854 26.359 18.4253L25.3892 18.8612L25.3671 21.3593C25.3549 22.7333 25.3035 23.8513 25.253 23.844C25.1382 23.8272 23.3206 22.9085 21.4936 21.9435C20.1749 21.2472 20.092 21.2195 19.7822 21.3707C19.6031 21.4582 18.5323 21.9315 17.4028 22.4227C16.2733 22.9138 15.3123 23.3477 15.2671 23.387C15.2221 23.4262 17.4953 24.6406 20.319 26.0858L25.4528 28.7133L27.6458 27.5952C28.8519 26.9803 29.8775 26.4194 29.9247 26.3488C30.031 26.1902 30.0219 16.8222 29.9155 16.8348C29.8734 16.8398 29.6049 16.9565 29.319 17.0942ZM17.1746 28.0899C16.7942 28.2511 16.4139 28.4125 16.0337 28.5742C14.8856 29.0638 15.1106 29.08 13.7447 28.4098C12.835 27.9635 12.4428 27.8257 12.2726 27.8926C12.1449 27.9427 11.0461 28.43 9.83057 28.9753C8.61513 29.5207 7.5785 29.9669 7.52694 29.9669C7.01698 29.9669 7.86478 30.4662 11.1362 32.0927L14.9729 34L16.5872 33.2145C17.475 32.7825 19.2658 31.9173 20.5668 31.292C21.8677 30.6665 22.9159 30.1385 22.8963 30.1186C22.8766 30.0988 21.7865 29.5471 20.4739 28.8927L18.0874 27.7029L17.1746 28.0899Z" fill="white"/>
</svg>
